<mxfile host="65bd71144e">
    <diagram id="n5FTuEOqiCdsn9YSQUc3" name="第 1 页">
        <mxGraphModel dx="567" dy="339" grid="1" gridSize="10" guides="1" tooltips="1" connect="1" arrows="1" fold="1" page="1" pageScale="1" pageWidth="4681" pageHeight="3300" background="none" math="1" shadow="0">
            <root>
                <mxCell id="0"/>
                <mxCell id="1" parent="0"/>
                <mxCell id="5" value="client i" style="shape=umlLifeline;perimeter=lifelinePerimeter;whiteSpace=wrap;html=1;container=1;collapsible=0;recursiveResize=0;outlineConnect=0;" parent="1" vertex="1">
                    <mxGeometry x="890" y="21" width="100" height="919" as="geometry"/>
                </mxCell>
                <mxCell id="6" value="" style="html=1;points=[];perimeter=orthogonalPerimeter;fillColor=#808080;" parent="5" vertex="1">
                    <mxGeometry x="45" y="80" width="10" height="130" as="geometry"/>
                </mxCell>
                <mxCell id="10" value="" style="endArrow=classic;html=1;entryX=0.763;entryY=-0.004;entryDx=0;entryDy=0;entryPerimeter=0;" parent="5" source="5" target="6" edge="1">
                    <mxGeometry width="50" height="50" relative="1" as="geometry">
                        <mxPoint x="150" y="230" as="sourcePoint"/>
                        <mxPoint x="200" y="180" as="targetPoint"/>
                    </mxGeometry>
                </mxCell>
                <mxCell id="tS4vsaLGMWtZxf_4NeL7-80" value="" style="html=1;points=[];perimeter=orthogonalPerimeter;fontColor=#FF3333;fillColor=#808080;" parent="5" vertex="1">
                    <mxGeometry x="45" y="719" width="10" height="80" as="geometry"/>
                </mxCell>
                <mxCell id="7" value="server" style="shape=umlLifeline;perimeter=lifelinePerimeter;whiteSpace=wrap;html=1;container=1;collapsible=0;recursiveResize=0;outlineConnect=0;" parent="1" vertex="1">
                    <mxGeometry x="707" y="21" width="120" height="1130" as="geometry"/>
                </mxCell>
                <mxCell id="tS4vsaLGMWtZxf_4NeL7-72" value="&lt;font color=&quot;#ff3333&quot;&gt;&amp;nbsp;收敛Congruence&lt;/font&gt;" style="html=1;shape=mxgraph.infographic.ribbonSimple;notch1=20;notch2=0;align=center;verticalAlign=middle;fontSize=14;fontStyle=0;flipH=1;fillColor=#b1ddf0;strokeColor=#10739e;" parent="7" vertex="1">
                    <mxGeometry x="-10" y="619" width="650" height="40" as="geometry"/>
                </mxCell>
                <mxCell id="8" value="" style="html=1;points=[];perimeter=orthogonalPerimeter;fillColor=#808080;strokeColor=#6c8ebf;" parent="7" vertex="1">
                    <mxGeometry x="55" y="99" width="10" height="520" as="geometry"/>
                </mxCell>
                <mxCell id="11" value="client j" style="shape=umlLifeline;perimeter=lifelinePerimeter;whiteSpace=wrap;html=1;container=1;collapsible=0;recursiveResize=0;outlineConnect=0;" parent="1" vertex="1">
                    <mxGeometry x="1030" y="21" width="100" height="1089" as="geometry"/>
                </mxCell>
                <mxCell id="12" value="" style="html=1;points=[];perimeter=orthogonalPerimeter;fillColor=#808080;" parent="11" vertex="1">
                    <mxGeometry x="45" y="120" width="10" height="120" as="geometry"/>
                </mxCell>
                <mxCell id="26" value="" style="html=1;points=[];perimeter=orthogonalPerimeter;fillColor=#808080;" parent="11" vertex="1">
                    <mxGeometry x="45" y="369" width="10" height="80" as="geometry"/>
                </mxCell>
                <mxCell id="tS4vsaLGMWtZxf_4NeL7-83" value="" style="html=1;points=[];perimeter=orthogonalPerimeter;fontColor=#FF3333;fillColor=#808080;" parent="11" vertex="1">
                    <mxGeometry x="45" y="719" width="10" height="80" as="geometry"/>
                </mxCell>
                <mxCell id="13" value="" style="endArrow=classic;html=1;entryX=0.424;entryY=0.009;entryDx=0;entryDy=0;entryPerimeter=0;" parent="1" source="8" target="12" edge="1">
                    <mxGeometry width="50" height="50" relative="1" as="geometry">
                        <mxPoint x="774.53" y="181" as="sourcePoint"/>
                        <mxPoint x="952.6299999999999" y="180.51999999999998" as="targetPoint"/>
                    </mxGeometry>
                </mxCell>
                <mxCell id="15" value="dispatch" style="html=1;verticalAlign=bottom;endArrow=block;entryX=0;entryY=0;" parent="1" source="7" target="14" edge="1">
                    <mxGeometry relative="1" as="geometry">
                        <mxPoint x="865" y="311" as="sourcePoint"/>
                    </mxGeometry>
                </mxCell>
                <mxCell id="16" value="&lt;span style=&quot;color: rgb(32, 33, 34); font-family: sans-serif; font-size: 15.008px; text-align: start; background-color: rgb(255, 255, 255);&quot;&gt;Δw(i)&lt;/span&gt;" style="html=1;verticalAlign=bottom;endArrow=open;endSize=8;exitX=0;exitY=0.95;" parent="1" source="14" target="8" edge="1">
                    <mxGeometry relative="1" as="geometry">
                        <mxPoint x="865" y="387" as="targetPoint"/>
                    </mxGeometry>
                </mxCell>
                <mxCell id="27" value="dispatch" style="html=1;verticalAlign=bottom;endArrow=block;entryX=0;entryY=0;" parent="1" source="7" target="26" edge="1">
                    <mxGeometry x="0.4378" relative="1" as="geometry">
                        <mxPoint x="1010" y="371" as="sourcePoint"/>
                        <mxPoint as="offset"/>
                    </mxGeometry>
                </mxCell>
                <mxCell id="28" value="&lt;span style=&quot;color: rgb(32, 33, 34); font-family: sans-serif; font-size: 15.008px; text-align: start; background-color: rgb(255, 255, 255);&quot;&gt;Δw(j)&lt;br&gt;&lt;/span&gt;" style="html=1;verticalAlign=bottom;endArrow=open;endSize=8;exitX=0;exitY=0.95;" parent="1" source="26" target="7" edge="1">
                    <mxGeometry x="-0.5627" y="-6" relative="1" as="geometry">
                        <mxPoint x="1010" y="447" as="targetPoint"/>
                        <mxPoint as="offset"/>
                    </mxGeometry>
                </mxCell>
                <mxCell id="14" value="" style="html=1;points=[];perimeter=orthogonalPerimeter;fillColor=#808080;" parent="1" vertex="1">
                    <mxGeometry x="935" y="351" width="10" height="70" as="geometry"/>
                </mxCell>
                <mxCell id="20" style="edgeStyle=none;html=1;" parent="1" source="14" target="5" edge="1">
                    <mxGeometry relative="1" as="geometry"/>
                </mxCell>
                <mxCell id="30" value="&lt;b&gt;TCP Connection&lt;/b&gt;" style="html=1;verticalAlign=bottom;endArrow=open;shape=flexArrow;fillColor=#1ba1e2;strokeColor=#006EAF;" parent="1" edge="1">
                    <mxGeometry x="-0.0843" relative="1" as="geometry">
                        <mxPoint x="1260" y="311" as="sourcePoint"/>
                        <mxPoint x="765" y="313" as="targetPoint"/>
                        <Array as="points">
                            <mxPoint x="970" y="313"/>
                        </Array>
                        <mxPoint as="offset"/>
                    </mxGeometry>
                </mxCell>
                <mxCell id="31" value="TCP Connection" style="html=1;verticalAlign=bottom;endArrow=open;shape=flexArrow;fillColor=#1ba1e2;strokeColor=#006EAF;" parent="1" source="7" edge="1">
                    <mxGeometry x="0.1025" relative="1" as="geometry">
                        <mxPoint x="1190" y="323" as="sourcePoint"/>
                        <mxPoint x="1260" y="81" as="targetPoint"/>
                        <Array as="points"/>
                        <mxPoint as="offset"/>
                    </mxGeometry>
                </mxCell>
                <mxCell id="32" value="&lt;b&gt;Init State&lt;/b&gt;" style="endArrow=open;html=1;shape=link;dashed=1;" parent="1" edge="1">
                    <mxGeometry x="0.1246" y="50" width="160" relative="1" as="geometry">
                        <mxPoint x="1260" y="81" as="sourcePoint"/>
                        <mxPoint x="1260" y="311" as="targetPoint"/>
                        <mxPoint as="offset"/>
                    </mxGeometry>
                </mxCell>
                <mxCell id="33" value="TCP Connection" style="html=1;verticalAlign=bottom;endArrow=open;shape=flexArrow;fillColor=#60a917;strokeColor=#2D7600;exitX=1.285;exitY=0.427;exitDx=0;exitDy=0;exitPerimeter=0;" parent="1" source="8" edge="1">
                    <mxGeometry x="0.1025" relative="1" as="geometry">
                        <mxPoint x="800" y="341" as="sourcePoint"/>
                        <mxPoint x="1260" y="341" as="targetPoint"/>
                        <Array as="points"/>
                        <mxPoint as="offset"/>
                    </mxGeometry>
                </mxCell>
                <mxCell id="34" value="&lt;b&gt;Trans&lt;br&gt;&amp;amp;Epochs&lt;br&gt;&lt;br&gt;&lt;/b&gt;" style="endArrow=open;html=1;shape=link;dashed=1;" parent="1" edge="1">
                    <mxGeometry x="0.1304" y="50" width="160" relative="1" as="geometry">
                        <mxPoint x="1260" y="341" as="sourcePoint"/>
                        <mxPoint x="1260" y="571" as="targetPoint"/>
                        <mxPoint as="offset"/>
                    </mxGeometry>
                </mxCell>
                <mxCell id="35" value="&lt;b&gt;TCP Connection&lt;/b&gt;" style="html=1;verticalAlign=bottom;endArrow=open;shape=flexArrow;fillColor=#60a917;strokeColor=#2D7600;" parent="1" edge="1">
                    <mxGeometry x="-0.0843" relative="1" as="geometry">
                        <mxPoint x="1260" y="571" as="sourcePoint"/>
                        <mxPoint x="765" y="573" as="targetPoint"/>
                        <Array as="points">
                            <mxPoint x="970" y="573"/>
                        </Array>
                        <mxPoint as="offset"/>
                    </mxGeometry>
                </mxCell>
                <mxCell id="tS4vsaLGMWtZxf_4NeL7-61" value="Test client" style="shape=umlLifeline;perimeter=lifelinePerimeter;whiteSpace=wrap;html=1;container=1;collapsible=0;recursiveResize=0;outlineConnect=0;" parent="1" vertex="1">
                    <mxGeometry x="1370" y="640" width="100" height="420" as="geometry"/>
                </mxCell>
                <mxCell id="tS4vsaLGMWtZxf_4NeL7-62" value="" style="html=1;points=[];perimeter=orthogonalPerimeter;fillColor=#808080;" parent="tS4vsaLGMWtZxf_4NeL7-61" vertex="1">
                    <mxGeometry x="45" y="70" width="10" height="130" as="geometry"/>
                </mxCell>
                <mxCell id="tS4vsaLGMWtZxf_4NeL7-63" value="" style="endArrow=classic;html=1;entryX=0.763;entryY=-0.004;entryDx=0;entryDy=0;entryPerimeter=0;" parent="tS4vsaLGMWtZxf_4NeL7-61" source="tS4vsaLGMWtZxf_4NeL7-61" target="tS4vsaLGMWtZxf_4NeL7-62" edge="1">
                    <mxGeometry width="50" height="50" relative="1" as="geometry">
                        <mxPoint x="150" y="230" as="sourcePoint"/>
                        <mxPoint x="200" y="180" as="targetPoint"/>
                    </mxGeometry>
                </mxCell>
                <mxCell id="tS4vsaLGMWtZxf_4NeL7-81" value="MiniST/CHAR-10 输入" style="html=1;verticalAlign=bottom;endArrow=block;entryX=0;entryY=0;fontColor=#FFFFFF;" parent="1" source="tS4vsaLGMWtZxf_4NeL7-62" target="tS4vsaLGMWtZxf_4NeL7-80" edge="1">
                    <mxGeometry relative="1" as="geometry">
                        <mxPoint x="865" y="740" as="sourcePoint"/>
                        <mxPoint as="offset"/>
                    </mxGeometry>
                </mxCell>
                <mxCell id="tS4vsaLGMWtZxf_4NeL7-82" value="预测输出 得到准确率" style="html=1;verticalAlign=bottom;endArrow=open;endSize=8;exitX=0;exitY=0.95;fontColor=#FFFFFF;" parent="1" source="tS4vsaLGMWtZxf_4NeL7-80" target="tS4vsaLGMWtZxf_4NeL7-62" edge="1">
                    <mxGeometry relative="1" as="geometry">
                        <mxPoint x="865" y="816" as="targetPoint"/>
                    </mxGeometry>
                </mxCell>
                <mxCell id="tS4vsaLGMWtZxf_4NeL7-87" value="client k" style="shape=umlLifeline;perimeter=lifelinePerimeter;whiteSpace=wrap;html=1;container=1;collapsible=0;recursiveResize=0;outlineConnect=0;" parent="1" vertex="1">
                    <mxGeometry x="278" y="1580" width="100" height="330" as="geometry"/>
                </mxCell>
                <mxCell id="tS4vsaLGMWtZxf_4NeL7-88" value="" style="html=1;points=[];perimeter=orthogonalPerimeter;fillColor=#808080;" parent="tS4vsaLGMWtZxf_4NeL7-87" vertex="1">
                    <mxGeometry x="45" y="60" width="10" height="130" as="geometry"/>
                </mxCell>
                <mxCell id="tS4vsaLGMWtZxf_4NeL7-90" value="" style="html=1;points=[];perimeter=orthogonalPerimeter;fontColor=#FF3333;fillColor=#808080;" parent="tS4vsaLGMWtZxf_4NeL7-87" vertex="1">
                    <mxGeometry x="45" y="210" width="10" height="80" as="geometry"/>
                </mxCell>
                <mxCell id="tS4vsaLGMWtZxf_4NeL7-92" value="Trigger1 spec." style="html=1;shape=mxgraph.infographic.ribbonSimple;notch1=20;notch2=0;align=center;verticalAlign=middle;fontSize=14;fontStyle=0;flipH=1;fillColor=#FFFFFF;fontColor=#FFFFFF;" parent="1" vertex="1">
                    <mxGeometry x="1280" y="390" width="400" height="40" as="geometry"/>
                </mxCell>
                <mxCell id="tS4vsaLGMWtZxf_4NeL7-94" value="" style="shape=ellipse;container=1;horizontal=1;horizontalStack=0;resizeParent=1;resizeParentMax=0;resizeLast=0;html=1;dashed=0;collapsible=0;fontColor=#FFFFFF;fillColor=#808080;" parent="1" vertex="1">
                    <mxGeometry x="1910" y="1050" width="180" height="120" as="geometry"/>
                </mxCell>
                <mxCell id="tS4vsaLGMWtZxf_4NeL7-96" value="" style="line;strokeWidth=1;fillColor=none;rotatable=0;labelPosition=right;points=[];portConstraint=eastwest;dashed=0;resizeWidth=1;fontColor=#FFFFFF;" parent="tS4vsaLGMWtZxf_4NeL7-94" vertex="1">
                    <mxGeometry x="9" y="30" width="162" height="10" as="geometry"/>
                </mxCell>
                <mxCell id="tS4vsaLGMWtZxf_4NeL7-98" value="maligious attacks" style="text;html=1;align=left;verticalAlign=middle;rotatable=0;spacingLeft=25;fillColor=none;strokeColor=none;fontColor=#FFFFFF;" parent="tS4vsaLGMWtZxf_4NeL7-94" vertex="1">
                    <mxGeometry y="40" width="180" height="30" as="geometry"/>
                </mxCell>
                <mxCell id="tS4vsaLGMWtZxf_4NeL7-95" value="UseCase1" style="html=1;strokeColor=none;fillColor=none;align=center;verticalAlign=middle;rotatable=0;fontColor=#FFFFFF;" parent="tS4vsaLGMWtZxf_4NeL7-94" vertex="1">
                    <mxGeometry x="-9" width="180" height="30" as="geometry"/>
                </mxCell>
                <mxCell id="tS4vsaLGMWtZxf_4NeL7-116" value="Zoop Keeper/Container&lt;br&gt;" style="shape=umlLifeline;perimeter=lifelinePerimeter;whiteSpace=wrap;html=1;container=1;collapsible=0;recursiveResize=0;outlineConnect=0;" parent="1" vertex="1">
                    <mxGeometry x="540" y="21" width="120" height="1130" as="geometry"/>
                </mxCell>
                <mxCell id="tS4vsaLGMWtZxf_4NeL7-118" value="" style="html=1;points=[];perimeter=orthogonalPerimeter;fillColor=#808080;strokeColor=#6c8ebf;" parent="tS4vsaLGMWtZxf_4NeL7-116" vertex="1">
                    <mxGeometry x="55" y="99" width="10" height="520" as="geometry"/>
                </mxCell>
                <mxCell id="tS4vsaLGMWtZxf_4NeL7-119" value="vice server" style="shape=umlLifeline;perimeter=lifelinePerimeter;whiteSpace=wrap;html=1;container=1;collapsible=0;recursiveResize=0;outlineConnect=0;" parent="1" vertex="1">
                    <mxGeometry x="360" y="20" width="120" height="1130" as="geometry"/>
                </mxCell>
                <mxCell id="tS4vsaLGMWtZxf_4NeL7-124" value="" style="html=1;points=[];perimeter=orthogonalPerimeter;fontColor=#FFFFFF;fillColor=#808080;" parent="tS4vsaLGMWtZxf_4NeL7-119" vertex="1">
                    <mxGeometry x="60" y="120" width="10" height="40" as="geometry"/>
                </mxCell>
                <mxCell id="tS4vsaLGMWtZxf_4NeL7-125" value="waiting&lt;span style=&quot;white-space: pre;&quot;&gt;&#9;&lt;/span&gt;" style="edgeStyle=orthogonalEdgeStyle;html=1;align=left;spacingLeft=2;endArrow=block;rounded=0;entryX=1;entryY=0;fontColor=#FFFFFF;" parent="tS4vsaLGMWtZxf_4NeL7-119" target="tS4vsaLGMWtZxf_4NeL7-124" edge="1">
                    <mxGeometry relative="1" as="geometry">
                        <mxPoint x="65" y="100" as="sourcePoint"/>
                        <Array as="points">
                            <mxPoint x="95" y="100"/>
                        </Array>
                    </mxGeometry>
                </mxCell>
                <mxCell id="tS4vsaLGMWtZxf_4NeL7-127" value="" style="html=1;points=[];perimeter=orthogonalPerimeter;fontColor=#FFFFFF;fillColor=#808080;" parent="tS4vsaLGMWtZxf_4NeL7-119" vertex="1">
                    <mxGeometry x="55" y="190" width="10" height="80" as="geometry"/>
                </mxCell>
                <mxCell id="tS4vsaLGMWtZxf_4NeL7-128" value="dispatch" style="html=1;verticalAlign=bottom;startArrow=circle;startFill=1;endArrow=open;startSize=6;endSize=8;fontColor=#FFFFFF;" parent="tS4vsaLGMWtZxf_4NeL7-119" target="tS4vsaLGMWtZxf_4NeL7-116" edge="1">
                    <mxGeometry width="80" relative="1" as="geometry">
                        <mxPoint x="55" y="210" as="sourcePoint"/>
                        <mxPoint x="135" y="210" as="targetPoint"/>
                    </mxGeometry>
                </mxCell>
                <mxCell id="tS4vsaLGMWtZxf_4NeL7-126" value="dispatch" style="html=1;verticalAlign=bottom;startArrow=circle;startFill=1;endArrow=open;startSize=6;endSize=8;fontColor=#FFFFFF;" parent="1" source="8" target="tS4vsaLGMWtZxf_4NeL7-116" edge="1">
                    <mxGeometry width="80" relative="1" as="geometry">
                        <mxPoint x="670" y="190" as="sourcePoint"/>
                        <mxPoint x="720" y="340" as="targetPoint"/>
                        <Array as="points">
                            <mxPoint x="680" y="150"/>
                        </Array>
                    </mxGeometry>
                </mxCell>
                <mxCell id="uLDSqnoyxSYQOp219QqG-35" value="1. - 需要考虑集群来增加处理能力吗? 感觉太下游了，不够体现算法的能力，只是单纯增加硬件能力而以？" style="shape=note;whiteSpace=wrap;html=1;backgroundOutline=1;fontColor=#000000;darkOpacity=0.05;fillColor=#FFF9B2;strokeColor=none;fillStyle=solid;direction=west;gradientDirection=north;gradientColor=#FFF2A1;shadow=1;size=20;pointerEvents=1;" parent="1" vertex="1">
                    <mxGeometry x="49" y="40" width="250" height="160" as="geometry"/>
                </mxCell>
                <mxCell id="60" style="edgeStyle=none;html=1;exitX=0.5;exitY=0;exitDx=0;exitDy=0;entryX=0;entryY=1;entryDx=0;entryDy=0;" edge="1" parent="1" source="37" target="43">
                    <mxGeometry relative="1" as="geometry"/>
                </mxCell>
                <mxCell id="37" value="" style="shape=ellipse;container=1;horizontal=1;horizontalStack=0;resizeParent=1;resizeParentMax=0;resizeLast=0;html=1;dashed=0;collapsible=0;fontColor=#FFFFFF;fillColor=#808080;" vertex="1" parent="1">
                    <mxGeometry x="1870" y="360" width="180" height="120" as="geometry"/>
                </mxCell>
                <mxCell id="38" value="" style="line;strokeWidth=1;fillColor=none;rotatable=0;labelPosition=right;points=[];portConstraint=eastwest;dashed=0;resizeWidth=1;fontColor=#FFFFFF;" vertex="1" parent="37">
                    <mxGeometry x="9" y="30" width="162" height="10" as="geometry"/>
                </mxCell>
                <mxCell id="39" value="数据异质性" style="text;html=1;align=center;verticalAlign=middle;rotatable=0;spacingLeft=25;fillColor=none;strokeColor=none;fontColor=#FFFFFF;" vertex="1" parent="37">
                    <mxGeometry x="-8" y="40" width="180" height="30" as="geometry"/>
                </mxCell>
                <mxCell id="40" value="UseCase4" style="html=1;strokeColor=none;fillColor=none;align=center;verticalAlign=middle;rotatable=0;fontColor=#FFFFFF;" vertex="1" parent="37">
                    <mxGeometry y="10" width="180" height="30" as="geometry"/>
                </mxCell>
                <mxCell id="41" value="" style="shape=ellipse;container=1;horizontal=1;horizontalStack=0;resizeParent=1;resizeParentMax=0;resizeLast=0;html=1;dashed=0;collapsible=0;fontColor=#FFFFFF;fillColor=#808080;" vertex="1" parent="1">
                    <mxGeometry x="2310" y="40" width="140" height="80" as="geometry"/>
                </mxCell>
                <mxCell id="42" value="" style="line;strokeWidth=1;fillColor=none;rotatable=0;labelPosition=right;points=[];portConstraint=eastwest;dashed=0;resizeWidth=1;fontColor=#FFFFFF;" vertex="1" parent="41">
                    <mxGeometry x="7" y="20" width="126" height="6.666666666666666" as="geometry"/>
                </mxCell>
                <mxCell id="43" value="label distribution skew" style="text;html=1;align=center;verticalAlign=middle;rotatable=0;spacingLeft=25;fillColor=none;strokeColor=none;fontColor=#FFFFFF;" vertex="1" parent="41">
                    <mxGeometry x="-6.222222222222221" y="26.666666666666664" width="140" height="20" as="geometry"/>
                </mxCell>
                <mxCell id="45" value="" style="shape=ellipse;container=1;horizontal=1;horizontalStack=0;resizeParent=1;resizeParentMax=0;resizeLast=0;html=1;dashed=0;collapsible=0;fontColor=#FFFFFF;fillColor=#808080;" vertex="1" parent="1">
                    <mxGeometry x="2320" y="180" width="140" height="80" as="geometry"/>
                </mxCell>
                <mxCell id="46" value="" style="line;strokeWidth=1;fillColor=none;rotatable=0;labelPosition=right;points=[];portConstraint=eastwest;dashed=0;resizeWidth=1;fontColor=#FFFFFF;" vertex="1" parent="45">
                    <mxGeometry x="7" y="20" width="126" height="6.666666666666666" as="geometry"/>
                </mxCell>
                <mxCell id="47" value="feature distribution &lt;br&gt;skew" style="text;html=1;align=center;verticalAlign=middle;rotatable=0;spacingLeft=25;fillColor=none;strokeColor=none;fontColor=#FFFFFF;" vertex="1" parent="45">
                    <mxGeometry x="-6.222222222222221" y="26.666666666666664" width="140" height="20" as="geometry"/>
                </mxCell>
                <mxCell id="48" value="" style="shape=ellipse;container=1;horizontal=1;horizontalStack=0;resizeParent=1;resizeParentMax=0;resizeLast=0;html=1;dashed=0;collapsible=0;fontColor=#FFFFFF;fillColor=#808080;" vertex="1" parent="1">
                    <mxGeometry x="2310" y="440.5" width="140" height="80" as="geometry"/>
                </mxCell>
                <mxCell id="49" value="" style="line;strokeWidth=1;fillColor=none;rotatable=0;labelPosition=right;points=[];portConstraint=eastwest;dashed=0;resizeWidth=1;fontColor=#FFFFFF;" vertex="1" parent="48">
                    <mxGeometry x="7" y="20" width="126" height="6.666666666666666" as="geometry"/>
                </mxCell>
                <mxCell id="50" value="&lt;div&gt;same&amp;nbsp;&lt;span style=&quot;background-color: initial;&quot;&gt;label&amp;nbsp;&lt;/span&gt;&lt;/div&gt;&lt;div&gt;&lt;span style=&quot;background-color: initial;&quot;&gt;but different features&lt;/span&gt;&lt;/div&gt;" style="text;html=1;align=center;verticalAlign=middle;rotatable=0;spacingLeft=25;fillColor=none;strokeColor=none;fontColor=#FFFFFF;" vertex="1" parent="48">
                    <mxGeometry x="-6.222222222222221" y="26.666666666666664" width="140" height="20" as="geometry"/>
                </mxCell>
                <mxCell id="51" value="" style="shape=ellipse;container=1;horizontal=1;horizontalStack=0;resizeParent=1;resizeParentMax=0;resizeLast=0;html=1;dashed=0;collapsible=0;fontColor=#FFFFFF;fillColor=#808080;" vertex="1" parent="1">
                    <mxGeometry x="2310" y="600" width="140" height="80" as="geometry"/>
                </mxCell>
                <mxCell id="52" value="" style="line;strokeWidth=1;fillColor=none;rotatable=0;labelPosition=right;points=[];portConstraint=eastwest;dashed=0;resizeWidth=1;fontColor=#FFFFFF;" vertex="1" parent="51">
                    <mxGeometry x="7" y="20" width="126" height="6.666666666666666" as="geometry"/>
                </mxCell>
                <mxCell id="53" value="same features &lt;br&gt;but different labels" style="text;html=1;align=center;verticalAlign=middle;rotatable=0;spacingLeft=25;fillColor=none;strokeColor=none;fontColor=#FFFFFF;" vertex="1" parent="51">
                    <mxGeometry x="-6.222222222222221" y="26.666666666666664" width="140" height="20" as="geometry"/>
                </mxCell>
                <mxCell id="54" value="" style="shape=ellipse;container=1;horizontal=1;horizontalStack=0;resizeParent=1;resizeParentMax=0;resizeLast=0;html=1;dashed=0;collapsible=0;fontColor=#FFFFFF;fillColor=#808080;" vertex="1" parent="1">
                    <mxGeometry x="2310" y="300" width="140" height="80" as="geometry"/>
                </mxCell>
                <mxCell id="55" value="" style="line;strokeWidth=1;fillColor=none;rotatable=0;labelPosition=right;points=[];portConstraint=eastwest;dashed=0;resizeWidth=1;fontColor=#FFFFFF;" vertex="1" parent="54">
                    <mxGeometry x="7" y="20" width="126" height="6.666666666666666" as="geometry"/>
                </mxCell>
                <mxCell id="56" value="quantity skew" style="text;html=1;align=center;verticalAlign=middle;rotatable=0;spacingLeft=25;fillColor=none;strokeColor=none;fontColor=#FFFFFF;" vertex="1" parent="54">
                    <mxGeometry x="-6.222222222222221" y="26.666666666666664" width="140" height="20" as="geometry"/>
                </mxCell>
                <mxCell id="61" style="edgeStyle=none;html=1;exitX=0.75;exitY=0;exitDx=0;exitDy=0;" edge="1" parent="1" source="40" target="47">
                    <mxGeometry relative="1" as="geometry"/>
                </mxCell>
                <mxCell id="62" style="edgeStyle=none;html=1;exitX=0.75;exitY=1;exitDx=0;exitDy=0;entryX=0;entryY=0;entryDx=0;entryDy=0;" edge="1" parent="1" source="40" target="56">
                    <mxGeometry relative="1" as="geometry"/>
                </mxCell>
                <mxCell id="63" style="edgeStyle=none;html=1;exitX=0.75;exitY=1;exitDx=0;exitDy=0;entryX=0.077;entryY=-0.121;entryDx=0;entryDy=0;entryPerimeter=0;" edge="1" parent="1" source="39" target="50">
                    <mxGeometry relative="1" as="geometry"/>
                </mxCell>
                <mxCell id="65" style="edgeStyle=none;html=1;exitX=0.5;exitY=1;exitDx=0;exitDy=0;entryX=0.093;entryY=-0.194;entryDx=0;entryDy=0;entryPerimeter=0;" edge="1" parent="1" source="39" target="53">
                    <mxGeometry relative="1" as="geometry"/>
                </mxCell>
                <mxCell id="tS4vsaLGMWtZxf_4NeL7-112" value="" style="shape=ellipse;container=1;horizontal=1;horizontalStack=0;resizeParent=1;resizeParentMax=0;resizeLast=0;html=1;dashed=0;collapsible=0;fontColor=#FFFFFF;fillColor=#808080;" parent="1" vertex="1">
                    <mxGeometry x="1930" y="1880" width="180" height="120" as="geometry"/>
                </mxCell>
                <mxCell id="tS4vsaLGMWtZxf_4NeL7-113" value="" style="line;strokeWidth=1;fillColor=none;rotatable=0;labelPosition=right;points=[];portConstraint=eastwest;dashed=0;resizeWidth=1;fontColor=#FFFFFF;" parent="tS4vsaLGMWtZxf_4NeL7-112" vertex="1">
                    <mxGeometry x="9" y="30" width="162" height="10" as="geometry"/>
                </mxCell>
                <mxCell id="tS4vsaLGMWtZxf_4NeL7-114" value="系统崩溃等异常" style="text;html=1;align=left;verticalAlign=middle;rotatable=0;spacingLeft=25;fillColor=none;strokeColor=none;fontColor=#FFFFFF;" parent="tS4vsaLGMWtZxf_4NeL7-112" vertex="1">
                    <mxGeometry y="40" width="180" height="30" as="geometry"/>
                </mxCell>
                <mxCell id="tS4vsaLGMWtZxf_4NeL7-115" value="UseCase4" style="html=1;strokeColor=none;fillColor=none;align=center;verticalAlign=middle;rotatable=0;fontColor=#FFFFFF;" parent="tS4vsaLGMWtZxf_4NeL7-112" vertex="1">
                    <mxGeometry x="-8" width="180" height="30" as="geometry"/>
                </mxCell>
                <mxCell id="tS4vsaLGMWtZxf_4NeL7-107" value="" style="shape=ellipse;container=1;horizontal=1;horizontalStack=0;resizeParent=1;resizeParentMax=0;resizeLast=0;html=1;dashed=0;collapsible=0;fontColor=#FFFFFF;fillColor=#808080;" parent="1" vertex="1">
                    <mxGeometry x="1920" y="1450" width="180" height="120" as="geometry"/>
                </mxCell>
                <mxCell id="tS4vsaLGMWtZxf_4NeL7-108" value="" style="line;strokeWidth=1;fillColor=none;rotatable=0;labelPosition=right;points=[];portConstraint=eastwest;dashed=0;resizeWidth=1;fontColor=#FFFFFF;" parent="tS4vsaLGMWtZxf_4NeL7-107" vertex="1">
                    <mxGeometry x="9" y="30" width="162" height="10" as="geometry"/>
                </mxCell>
                <mxCell id="tS4vsaLGMWtZxf_4NeL7-109" value="无法收敛" style="text;html=1;align=left;verticalAlign=middle;rotatable=0;spacingLeft=25;fillColor=none;strokeColor=none;fontColor=#FFFFFF;" parent="tS4vsaLGMWtZxf_4NeL7-107" vertex="1">
                    <mxGeometry y="40" width="180" height="30" as="geometry"/>
                </mxCell>
                <mxCell id="tS4vsaLGMWtZxf_4NeL7-110" value="UseCase3" style="html=1;strokeColor=none;fillColor=none;align=center;verticalAlign=middle;rotatable=0;fontColor=#FFFFFF;" parent="tS4vsaLGMWtZxf_4NeL7-107" vertex="1">
                    <mxGeometry x="-8" width="180" height="30" as="geometry"/>
                </mxCell>
                <mxCell id="tS4vsaLGMWtZxf_4NeL7-103" value="" style="shape=ellipse;container=1;horizontal=1;horizontalStack=0;resizeParent=1;resizeParentMax=0;resizeLast=0;html=1;dashed=0;collapsible=0;fontColor=#FFFFFF;fillColor=#808080;" parent="1" vertex="1">
                    <mxGeometry x="88" y="1710" width="180" height="120" as="geometry"/>
                </mxCell>
                <mxCell id="tS4vsaLGMWtZxf_4NeL7-104" value="" style="line;strokeWidth=1;fillColor=none;rotatable=0;labelPosition=right;points=[];portConstraint=eastwest;dashed=0;resizeWidth=1;fontColor=#FFFFFF;" parent="tS4vsaLGMWtZxf_4NeL7-103" vertex="1">
                    <mxGeometry x="9" y="30" width="162" height="10" as="geometry"/>
                </mxCell>
                <mxCell id="tS4vsaLGMWtZxf_4NeL7-105" value="Client nodes's Update" style="text;html=1;align=left;verticalAlign=middle;rotatable=0;spacingLeft=25;fillColor=none;strokeColor=none;fontColor=#FFFFFF;" parent="tS4vsaLGMWtZxf_4NeL7-103" vertex="1">
                    <mxGeometry y="40" width="180" height="30" as="geometry"/>
                </mxCell>
                <mxCell id="tS4vsaLGMWtZxf_4NeL7-106" value="UseCase2" style="html=1;strokeColor=none;fillColor=none;align=center;verticalAlign=middle;rotatable=0;fontColor=#FFFFFF;" parent="tS4vsaLGMWtZxf_4NeL7-103" vertex="1">
                    <mxGeometry x="-8" width="180" height="30" as="geometry"/>
                </mxCell>
            </root>
        </mxGraphModel>
    </diagram>
    <diagram id="0VKCwunAhPojuAKij5Zo" name="第 2 页">
        <mxGraphModel dx="992" dy="594" grid="1" gridSize="10" guides="1" tooltips="1" connect="1" arrows="1" fold="1" page="1" pageScale="1" pageWidth="827" pageHeight="1169" math="0" shadow="0">
            <root>
                <mxCell id="0"/>
                <mxCell id="1" parent="0"/>
            </root>
        </mxGraphModel>
    </diagram>
    <diagram id="D9WTljltJA51mGXBzIGt" name="第 3 页">
        <mxGraphModel dx="992" dy="594" grid="1" gridSize="10" guides="1" tooltips="1" connect="1" arrows="1" fold="1" page="1" pageScale="1" pageWidth="3300" pageHeight="2339" math="0" shadow="0">
            <root>
                <mxCell id="0"/>
                <mxCell id="1" parent="0"/>
            </root>
        </mxGraphModel>
    </diagram>
</mxfile>